PathFileType	4	(X/Y/Z)	C:/Users/beibeiliu/ov580/test_trc\sequence.26_training_dense_left.trc
DataRate	CameraRate	NumFrames	NumMarkers	Units	OrigDataRate	OrigDataStartFrame	OrigNumFrames
120	120	12	19	mm	120	1	74
Frame#	Time	ThumbCMC			ThumbMCP			ThumbIP			ThumbTip			IndexMCP			IndexPIP			IndexTip			MiddleMCP			MiddlePIP			MiddleTip			RingMCP			RingPIP			RingTip			PinkyMCP			PinkyPIP			PinkyTip			BackHand1			BackHand2			BackHand3	
		X0	Y0	Z0	X1	Y1	Z1	X2	Y2	Z2	X3	Y3	Z3	X4	Y4	Z4	X5	Y5	Z5	X6	Y6	Z6	X7	Y7	Z7	X8	Y8	Z8	X9	Y9	Z9	X10	Y10	Z10	X11	Y11	Z11	X12	Y12	Z12	X13	Y13	Z13	X14	Y14	Z14	X15	Y15	Z15	X16	Y16	Z16	X17	Y17	Z17	X18	Y18	Z18	
0	0	-118.268	36.9011	35.5743	-106.016	21.325	14.6395	-97.3596	13.2272	-7.26265	-96.8052	2.80215	-30.1968	-129.129	36.0258	-32.4326	-123.703	23.5204	-53.6915	-118.945	-1.02988	-71.1887	-149.37	33.1756	-39.1632	-150.032	20.0367	-63.3953	-149.359	-4.06234	-79.0829	-166.86	28.9574	-34.1565	-168.341	19.7618	-52.9626	-167.257	2.97882	-69.7684	-187.388	21.812	-19.4765	-188.979	13.9897	-34.2635	-186.249	2.83108	-54.038	-168.145	47.0078	7.8861	-169.523	53.4666	38.1909	-143.976	55.67	21.1373	
1	0.00833333	-120.534	35.8308	33.0279	-105.513	21.6959	13.1462	-103.09	13.1384	-7.30901	-98.8148	1.42735	-29.426	-129.837	34.8046	-34.3797	-125.212	19.9272	-57.391	-120.879	-3.55047	-70.9089	-149.071	31.1365	-42.1619	-149.424	19.9322	-61.7258	-149.647	-6.15418	-78.9027	-171.621	27.6483	-32.6869	-167.35	17.1751	-53.4088	-165.865	-2.82945	-73.3001	-184.969	22.0381	-16.5899	-189.717	10.0347	-39.2553	-189.456	1.54875	-53.831	-171.035	45.3467	11.0729	-169.214	53.6184	34.77	-143.591	54.0384	19.023	
2	0.0166667	-122.1	33.5287	34.8871	-108.108	19.9791	15.9342	-101.204	9.89371	-10.5223	-100.894	0.547451	-25.0166	-125.829	31.6934	-37.5365	-126.56	18.7608	-55.3304	-118.012	-1.9392	-68.8217	-152.634	29.5104	-39.1438	-150.448	15.6502	-62.134	-147.32	-7.39059	-77.8213	-167.55	26.24	-31.3111	-167.793	10.8105	-56.7715	-166.588	-7.01245	-71.2766	-187.696	19.4078	-18.427	-190.235	7.39415	-37.3355	-187.059	-3.57727	-52.7178	-173.189	43.458	10.2103	-169.929	49.5438	34.602	-146.833	51.7137	21.7158	
3	0.025	-122.944	31.3234	30.2527	-112.338	17.3609	12.7974	-105.548	8.25753	-8.56044	-102.192	-1.85938	-24.3954	-132.79	29.8691	-36.9406	-125.657	15.8657	-58.2642	-125.901	-3.59131	-67.7385	-153.879	27.6336	-38.0183	-152.897	11.3708	-64.1102	-150.058	-12.83	-76.6197	-170.287	22.1681	-34.3111	-170.094	7.23694	-56.352	-164.653	-7.80326	-68.0613	-185.658	15.4708	-17.9651	-187.665	5.68372	-39.5521	-186.972	-7.16572	-55.4419	-175.592	37.3808	7.54351	-178.652	43.5537	33.4755	-150.364	48.3557	19.0872	
4	0.0333333	-134.351	32.2668	32.7297	-116.95	20.0983	9.66693	-106.992	12.0932	-8.50569	-103.519	1.7476	-28.3725	-137.778	38.1926	-34.6853	-133.662	26.0766	-56.4273	-124.314	4.53418	-69.0539	-158.01	32.6777	-44.736	-152.969	15.2776	-66.8795	-147.444	-6.69016	-76.1533	-179.476	22.2372	-34.8222	-170.163	9.77467	-59.7421	-161.976	-11.244	-68.6369	-194.437	12.3375	-22.6511	-187.89	6.70695	-41.3874	-183.01	-8.1758	-58.2223	-184.49	37.082	7.3445	-181.795	42.4234	31.9111	-159.914	47.8345	19.1506	
5	0.0416667	-141.075	38.6339	27.2818	-123.384	27.8239	9.43735	-113.037	21.2005	-12.6202	-104.945	11.1645	-30.1328	-145.153	49.9525	-33.8041	-140.465	34.6965	-59.7716	-126.831	17.9249	-68.7438	-167.21	40.062	-44.8332	-156.815	28.8136	-67.602	-146.642	1.90853	-74.0496	-184.346	28.4366	-37.6262	-172.933	16.2766	-62.0101	-160.414	-1.24459	-67.4059	-195.584	17.8562	-26.1718	-188.989	12.92	-44.5015	-176.986	-2.93387	-58.575	-189.426	39.2135	9.51302	-192.574	39.8416	32.397	-166.856	52.8921	20.5907	
6	0.05	-144.841	45.909	26.765	-124.851	35.2736	8.04252	-116.306	27.958	-8.3846	-107.829	20.7809	-28.4568	-154.541	58.2871	-38.8702	-143.037	51.8988	-57.1892	-129.695	30.7507	-67.7139	-172.166	49.3993	-46.4726	-159.107	42.5632	-67.3273	-140.813	14.6803	-72.4148	-183.616	37.8347	-37.2247	-172.858	27.91	-62.0821	-150.937	9.33899	-66.3052	-198.267	21.2346	-30.6005	-185.697	16.8503	-52.4053	-169.938	6.45179	-61.5011	-193.161	39.8135	7.85632	-200.208	38.3728	31.6786	-178.637	56.1203	21.105	
7	0.0583333	-148.888	48.8337	31.0083	-127.761	38.9775	10.7816	-113.109	35.7397	-11.4688	-103.803	27.6992	-28.6664	-157.579	67.3502	-36.7829	-142.08	58.7322	-59.0485	-129.961	40.5084	-66.7546	-172.506	57.7558	-45.9685	-159.264	50.3795	-67.5286	-134.783	25.699	-68.0425	-184.518	44.3897	-39.8334	-172.867	34.1161	-64.1835	-152.65	19.3325	-66.4032	-197.588	27.7858	-35.6096	-185.731	26.5318	-52.4618	-163.371	15.1555	-62.724	-200.066	38.4471	4.9254	-202.736	38.0738	27.7559	-181.033	60.4944	20.7968	
8	0.0666667	-149.137	49.0532	28.3498	-128.085	40.1492	8.40482	-116.181	36.6629	-9.33428	-104.756	30.0649	-30.9068	-157.984	71.4269	-33.0322	-142.007	63.4324	-58.6217	-121.199	45.982	-63.8562	-172.302	62.1098	-41.9568	-156.707	52.2647	-68.973	-135.301	32.0345	-68.0777	-184.633	47.3178	-42.405	-170.61	40.4983	-64.634	-145.937	26.5276	-65.327	-196.71	28.7823	-33.0323	-184.442	31.5231	-53.108	-162.974	22.1637	-65.0009	-197.203	40.7644	2.72887	-203.241	35.4151	28.8748	-181.93	57.6124	21.2037	
9	0.075	-151.016	47.1091	30.2672	-123.789	40.7593	11.1326	-110.643	38.2869	-4.85162	-104.305	30.0766	-25.1472	-155.892	72.2125	-32.6793	-145.472	65.882	-55.1092	-124.06	48.8725	-64.6437	-169.328	63.8493	-42.9161	-153.121	57.9997	-66.4648	-132.827	35.8856	-68.1213	-180.988	50.2643	-41.7826	-170.774	42.6906	-64.4708	-146.176	29.2942	-67.0413	-191.559	30.5889	-30.7158	-181.081	31.0218	-55.1489	-161.512	26.0213	-64.3722	-198.629	37.7904	2.34285	-202.55	35.4634	24.8146	-181.593	56.9662	22.74	
10	0.0833333	-148.088	47.4279	29.7795	-125.188	38.8688	11.9676	-111	35.8378	-6.62467	-100.419	29.4503	-27.1279	-155.932	69.1704	-33.006	-141.918	66.2561	-53.8371	-122.754	46.7117	-64.7719	-168.478	62.2807	-43.8489	-153.424	57.0429	-64.834	-134.516	33.0743	-69.9325	-184.269	44.1857	-41.0844	-170.044	43.0801	-63.5283	-144.641	30.0644	-69.0525	-190.52	29.8025	-30.3023	-181.211	32.1146	-54.0018	-162.634	26.9101	-64.7466	-197.469	36.7229	3.49018	-200.184	34.2284	24.6941	-182.347	55.3363	21.96	
11	0.0916667	-148.986	43.8727	31.182	-122.097	38.014	12.888	-109.843	35.1783	-6.87752	-105.626	27.7777	-27.9104	-153.801	71.642	-32.7401	-141.38	66.4078	-56.1105	-127.621	50.5405	-66.7563	-168.746	63.8569	-40.3006	-155.491	57.303	-67.3767	-134.31	33.2119	-72.7173	-184.195	47.8951	-37.7462	-170.497	48.5497	-61.3324	-152.459	33.3722	-72.2687	-190.476	36.8443	-33.233	-183.904	37.0778	-50.4637	-166.755	28.8931	-68.2536	-197.368	42.3201	3.21921	-201.772	36.6101	27.3139	-175.829	57.9251	21.817	
